<svg width="17" height="18" viewBox="0 0 17 18" fill="none" xmlns="http://www.w3.org/2000/svg">
<path d="M7.50517 17.0162H3.82489C1.71273 17.0119 0.00439715 15.3034 0 13.1913L0.000175269 3.82489C0.00438172 1.71273 1.71291 0.00439715 3.82506 0H7.50534C9.6175 0.00420645 11.3258 1.71273 11.3302 3.82489C11.3302 4.19891 11.0242 4.50492 10.6502 4.50492C10.2762 4.50492 9.97017 4.1989 9.97017 3.82489C9.97017 2.46496 8.86527 1.36006 7.50534 1.36006H3.82506C2.46513 1.36006 1.36024 2.46496 1.36024 3.82489V13.1872C1.36024 14.5472 2.46513 15.6521 3.82506 15.6521H7.50534C8.86527 15.6521 9.97017 14.5472 9.97017 13.1872C9.97017 12.8132 10.2762 12.5072 10.6502 12.5072C11.0242 12.5072 11.3302 12.8132 11.3302 13.1872C11.3301 15.3036 9.61732 17.0119 7.50516 17.0163L7.50517 17.0162Z" fill="#B1B5B9"/>
<path d="M16.803 8.0198L13.6752 4.89195C13.4118 4.63693 12.9909 4.63693 12.7275 4.89195C12.4597 5.15538 12.4513 5.58463 12.7147 5.85241L14.6824 7.82013L5.59605 7.81996C5.22203 7.81996 4.91602 8.12598 4.91602 8.49999C4.91602 8.874 5.22203 9.18002 5.59605 9.18002H14.699L12.7101 11.169C12.5827 11.2964 12.5103 11.4708 12.5103 11.6492C12.5103 12.0232 12.8163 12.3292 13.1903 12.3292C13.3687 12.3292 13.5431 12.257 13.6706 12.1294L16.7984 9.00157C16.8834 8.91236 16.9386 8.81036 16.9684 8.69976C17.0408 8.46174 16.9854 8.20252 16.8028 8.01973L16.803 8.0198Z" fill="#B1B5B9"/>
</svg>
