<svg xmlns="http://www.w3.org/2000/svg" width="160" height="35.309" viewBox="0 0 160 35.309">
    <g data-name="Group 75">
        <g data-name="Group 74">
            <g data-name="Group 73">
                <g data-name="Group 72">
                    <path data-name="Path 82" d="M116.58 46.5h-7.38l-5.8 14.319 3.634 8.949z" transform="translate(-84.742 -43.3)" style="fill:#61bbd0"/>
                </g>
                <path data-name="Path 83" d="M76.376 46.5H69l12.854 31.4h6.129l.542-1.248-10.9-27.01z" transform="translate(-69 -43.3)" style="fill:#1c264e"/>
            </g>
            <path data-name="Path 84" d="M137.012 61.5a12.25 12.25 0 0 0-8.841 3.308 11.4 11.4 0 0 0-3.471 8.624v.163a11.235 11.235 0 0 0 3.417 8.57 12.689 12.689 0 0 0 9 3.2 13.191 13.191 0 0 0 9.763-4.122l-3.9-3.742a7.884 7.884 0 0 1-5.532 2.224c-3.58 0-5.912-1.736-6.021-4.448h17.139c.055-.651.109-1.41.109-2.169a11.163 11.163 0 0 0-3.254-8.19 10.845 10.845 0 0 0-8.409-3.418zm-5.478 9.275c.163-2.115 2.549-3.8 5.478-3.8 2.712 0 4.881 1.681 4.881 3.8z" transform="translate(-94.49 -50.164)" style="fill:#1c264e"/>
            <path data-name="Path 85" d="M185.775 67.275a6.853 6.853 0 0 1 5.206 2.332l4.231-4.177a12.219 12.219 0 0 0-9.437-4.23 12.457 12.457 0 0 0-8.9 3.471 12.048 12.048 0 0 0 0 17.139 12.594 12.594 0 0 0 8.9 3.417A12.218 12.218 0 0 0 195.212 81l-4.231-4.176a6.853 6.853 0 0 1-5.206 2.332 5.941 5.941 0 0 1 0-11.878z" transform="translate(-116.731 -50.027)" style="fill:#1c264e"/>
            <path data-name="Path 86" d="M225.991 46.5h-6.508v8.678H216.5v6.075h2.983V77.9h6.508V61.253h5.044v-6.075h-5.044z" transform="translate(-136.5 -43.3)" style="fill:#1c264e"/>
            <path data-name="Path 87" d="M266.678 64.825a13.053 13.053 0 0 0-17.845 0 11.2 11.2 0 0 0-3.634 8.515 11.4 11.4 0 0 0 3.634 8.57 12.77 12.77 0 0 0 8.949 3.471 12.639 12.639 0 0 0 8.9-3.471 11.177 11.177 0 0 0 3.688-8.57 10.984 10.984 0 0 0-3.692-8.515zm-4.719 12.692a5.892 5.892 0 0 1-8.353 0 5.771 5.771 0 0 1-1.736-4.231 5.649 5.649 0 0 1 1.736-4.176 5.448 5.448 0 0 1 4.176-1.736 5.926 5.926 0 0 1 5.912 5.912 5.77 5.77 0 0 1-1.735 4.231z" transform="translate(-149.633 -50.073)" style="fill:#1c264e"/>
            <path data-name="Path 88" d="M311.388 61.6c-3.091 0-5.532 1.3-6.563 3.58v-3.092H298.1v22.671h6.726V73.7c0-3.742 2.277-5.912 6.074-5.912a14.757 14.757 0 0 1 2.277.217v-6.242a13.443 13.443 0 0 0-1.789-.163z" transform="translate(-173.842 -50.21)" style="fill:#1c264e"/>
        </g>
    </g>
    <g data-name="Group 77">
        <g data-name="Group 76">
            <path data-name="Path 89" d="M336.2 56.383a4.507 4.507 0 0 0 4.34 2.332c2.278 0 3.959-1.356 3.959-3.363 0-2.061-1.627-3.309-4.447-3.309a13.7 13.7 0 0 0-4.014.434l5.479-7.376h-7.159V40.6h15.186l-5.966 7.919h.054a6.086 6.086 0 0 1 4.122 2.17 6.677 6.677 0 0 1 1.683 4.556 7.615 7.615 0 0 1-2.387 5.695 8.751 8.751 0 0 1-6.347 2.278 9.345 9.345 0 0 1-8.3-4.393z" transform="translate(-189.539 -40.6)" style="fill:#61bbd0"/>
        </g>
    </g>
</svg>
